# Blender v3.1.2 OBJ File: ''
# www.blender.org
mtllib cubo-2.mtl
o Cube
v 1.000000 1.000000 -1.000000
v 1.000000 -1.000000 -1.000000
v 1.000000 1.000000 1.000000
v 1.000000 -1.000000 1.000000
v -1.000000 1.000000 -1.000000
v -1.000000 -1.000000 -1.000000
v -1.000000 1.000000 1.000000
v -1.000000 -1.000000 1.000000
vt 0.532058 0.500000
vt 0.997101 0.587475
vt 0.997101 0.750000
vt 1.000414 0.855699
vt 0.375000 1.001491
vt 0.998592 1.000000
vt 0.375000 1.000000
vt 0.003230 0.000000
vt 1.000414 0.000000
vt 0.996770 0.583499
vt 0.003230 0.003976
vt 0.001077 0.500000
vt 0.005053 0.379722
vt 0.001077 1.001491
vn 0.0000 1.0000 0.0000
vn 0.0000 0.0000 1.0000
vn -1.0000 0.0000 0.0000
vn 0.0000 -1.0000 0.0000
vn 1.0000 0.0000 0.0000
vn 0.0000 0.0000 -1.0000
usemtl Material
s off
f 1/1/1 5/2/1 7/3/1 3/4/1
f 4/5/2 3/4/2 7/6/2 8/7/2
f 8/8/3 7/9/3 5/10/3 6/11/3
f 6/12/4 2/13/4 4/5/4 8/14/4
f 2/13/5 1/1/5 3/4/5 4/5/5
f 6/11/6 5/10/6 1/1/6 2/13/6
