# Blender v3.1.2 OBJ File: ''
# www.blender.org
mtllib cubo-4.mtl
o Cube_Cube.002
v -1.000000 -1.000000 1.000000
v -1.000000 1.000000 1.000000
v -1.000000 -1.000000 -1.000000
v -1.000000 1.000000 -1.000000
v 1.000000 -1.000000 1.000000
v 1.000000 1.000000 1.000000
v 1.000000 -1.000000 -1.000000
v 1.000000 1.000000 -1.000000
vt 1.000000 1.000000
vt 0.000000 0.000000
vt 1.000000 0.000000
vt 1.000000 1.000000
vt 0.000000 0.000000
vt 1.000000 0.000000
vt 0.500000 0.000000
vt 0.500000 1.000000
vt 0.000000 0.500000
vt 0.000000 1.000000
vt 1.000000 1.000000
vt 0.000000 1.000000
vt 1.000000 1.000000
vt 0.000000 1.000000
vt 1.000000 0.000000
vt 1.000000 1.000000
vt 0.500000 1.000000
vt 0.000000 0.500000
vt 0.500000 0.000000
vt 0.500000 1.000000
vt 0.000000 0.500000
vt 0.500000 0.000000
vt 0.000000 0.000000
vt 0.500000 1.000000
vt 0.000000 0.500000
vt 0.500000 0.000000
vt 1.000000 0.000000
vt 0.500000 1.000000
vt 0.000000 0.500000
vt 0.500000 0.000000
vn -1.0000 0.0000 0.0000
vn 0.0000 0.0000 -1.0000
vn 1.0000 0.0000 0.0000
vn 0.0000 0.0000 1.0000
vn 0.0000 -1.0000 0.0000
vn 0.0000 1.0000 0.0000
usemtl None
s off
f 2/1/1 3/2/1 1/3/1
f 4/4/2 7/5/2 3/6/2
f 8/7/3 5/8/3 7/9/3
f 6/10/4 1/3/4 5/11/4
f 7/12/5 1/3/5 3/13/5
f 4/14/6 6/15/6 8/16/6
f 4/17/2 8/18/2 7/19/2
f 8/20/3 6/21/3 5/22/3
f 6/10/4 2/23/4 1/3/4
f 7/24/5 5/25/5 1/26/5
f 4/27/6 2/1/6 6/10/6
f 2/28/1 4/29/1 3/30/1
