# Blender v3.1.2 OBJ File: 'Monitors.blend'
# www.blender.org
mtllib horScreen9.mtl
o horPlane-9_Plane.006
v -2.434748 1.500000 -0.000000
v -2.434748 -1.500000 -0.000000
v 2.434748 1.500000 0.000000
v 2.434748 -1.500000 0.000000
v -2.434748 0.000000 -0.000000
v 2.434748 -0.000000 0.000000
v 0.000000 1.500000 0.000000
v -0.000000 -1.500000 0.000000
v 0.000000 0.000000 0.000000
vt 0.392434 0.978446
vt 0.392434 0.485687
vt 0.888315 0.485687
vt 0.888315 0.978446
vt 0.207033 0.555634
vt 0.207033 0.062875
vt 0.702913 0.062875
vt 0.702913 0.555634
vt 0.187135 0.714587
vt 0.187135 0.221828
vt 0.683016 0.221828
vt 0.683016 0.714587
vt 0.030257 0.651002
vt 0.030257 0.158243
vt 0.526137 0.158243
vt 0.526137 0.651002
vn -0.0000 0.0000 1.0000
usemtl None
s off
f 9/1/1 8/2/1 4/3/1 6/4/1
f 7/5/1 9/6/1 6/7/1 3/8/1
f 1/9/1 5/10/1 9/11/1 7/12/1
f 5/13/1 2/14/1 8/15/1 9/16/1
