# Blender 3.6.2
# www.blender.org
mtllib horPlane-11.mtl
o horPlane-11
v -2.434748 1.500000 -0.000000
v -2.434748 -1.500000 -0.000000
v 2.434748 1.500000 0.000000
v 2.434748 -1.500000 0.000000
v -2.434748 0.000000 -0.000000
v 2.434748 -0.000000 0.000000
v 0.000000 1.500000 0.000000
v -0.000000 -1.500000 0.000000
v 0.000000 0.000000 0.000000
vn -0.0000 -0.0000 1.0000
vt 0.540399 0.660540
vt 0.392434 0.485687
vt 0.706479 0.514299
vt 0.888315 0.978446
vt 0.207033 0.555634
vt 0.207033 0.062875
vt 0.449769 0.250440
vt 0.369547 0.399859
vt 0.313707 0.460262
vt 0.431366 0.568347
vt 0.683016 0.221828
vt 0.447698 0.972092
vt 0.349361 0.574705
vt 0.351144 0.310839
vt 0.526137 0.158243
vt 0.543964 0.860821
s 0
f 9/1/1 8/2/1 4/3/1 6/4/1
f 7/5/1 9/6/1 6/7/1 3/8/1
f 1/9/1 5/10/1 9/11/1 7/12/1
f 5/13/1 2/14/1 8/15/1 9/16/1
