# Blender v3.1.2 OBJ File: 'Monitors.blend'
# www.blender.org
mtllib sqScreen3.mtl
o SqPlane-3_Plane.011
v -1.500000 -1.500000 -0.000000
v 1.500000 -1.500000 -0.000000
v -1.500000 1.500000 0.000000
v 1.500000 1.500000 0.000000
v -1.500000 0.000000 0.000000
v -1.500000 -0.750000 -0.000000
v 0.000000 0.000000 0.000000
v -1.500000 -1.125000 -0.000000
v 0.000000 1.500000 0.000000
v 0.750000 -0.750000 -0.000000
v 1.500000 0.000000 0.000000
v -1.500000 -0.375000 -0.000000
v -0.750000 0.750000 0.000000
v 0.375000 0.375000 0.000000
vt 0.185532 0.821631
vt 0.000000 1.000000
vt 0.000000 0.862931
vt 0.000000 0.002518
vt 0.873321 0.868546
vt 0.392553 1.000000
vt 0.504066 0.128227
vt 0.500000 0.550142
vt 0.265035 0.448179
vt 0.000000 0.000839
vt 1.000000 0.000000
vt 0.000000 0.000000
vt 1.000000 0.500000
vt 1.000000 1.000000
vn -0.0000 -0.0000 1.0000
usemtl None
s off
f 13/1/1 3/2/1 5/3/1 12/4/1
f 14/5/1 9/6/1 3/2/1 13/1/1
f 10/7/1 7/8/1 6/9/1 8/10/1
f 2/11/1 10/7/1 8/10/1 1/12/1
f 11/13/1 4/14/1 9/6/1 14/5/1
f 2/11/1 11/13/1 14/5/1 10/7/1
f 10/7/1 14/5/1 13/1/1 7/8/1
f 7/8/1 13/1/1 12/4/1 6/9/1
