# Blender 3.6.2
# www.blender.org
mtllib Rect-1.mtl
o Rect-1
v -2.500000 -1.500000 1.500000
v -2.500000 1.500000 1.500000
v -2.500000 -1.500000 -1.500000
v -2.500000 1.500000 -1.500000
v 2.500000 -1.500000 1.500000
v 2.500000 1.500000 1.500000
v 2.500000 -1.500000 -1.500000
v 2.500000 1.500000 -1.500000
vn -1.0000 -0.0000 -0.0000
vn -0.0000 -0.0000 -1.0000
vn 1.0000 -0.0000 -0.0000
vn -0.0000 -0.0000 1.0000
vn -0.0000 -1.0000 -0.0000
vn -0.0000 1.0000 -0.0000
vt 0.475983 -0.003179
vt 0.475983 0.996821
vt 1.000000 1.000000
vt 1.000000 0.000000
vt 0.000000 0.000000
vt 0.000000 1.000000
vt 0.497277 0.004769
vt 0.499059 0.993642
vt 0.003565 0.990463
vt 0.001783 0.004769
s 0
f 1/1/1 2/2/1 4/3/1 3/4/1
f 3/5/2 4/6/2 8/3/2 7/4/2
f 7/7/3 8/8/3 6/9/3 5/10/3
f 5/4/4 6/3/4 2/6/4 1/5/4
f 3/6/5 7/3/5 5/4/5 1/5/5
f 8/3/6 4/6/6 2/5/6 6/4/6
