# Blender v3.1.2 OBJ File: 'Monitors.blend'
# www.blender.org
mtllib Penta-1.mtl
o penta-1_Icosphere.007
v 1.012660 -1.268687 0.000000
v 1.347519 0.195990 0.867438
v 0.078850 -0.858950 1.403556
v -0.705249 -1.510955 0.000000
v 0.078850 -0.858950 -1.403556
v 1.347519 0.195990 -0.867438
v -0.163442 0.858950 1.403556
v -1.432110 -0.195990 0.867438
v -1.432110 -0.195990 -0.867438
v -0.163442 0.858950 -1.403556
v 0.620658 1.510955 0.000000
v -1.097252 1.268687 0.000000
vt 0.954192 0.605072
vt 0.553168 0.605073
vt 0.646990 0.347300
vt 0.622804 1.000000
vt 0.954192 0.089524
vt 0.000000 0.742229
vt 0.176325 0.257771
vt 0.376839 0.605069
vt 0.446476 1.000000
vt 0.176325 0.742229
vt 0.376838 0.394931
vt 0.446476 0.000000
vt 0.553168 0.394927
vt 0.646990 0.652700
vt 0.622804 0.000000
vt 0.954192 0.910476
vt 0.000000 0.257771
vt 0.954192 0.394928
vn 0.6523 -0.4911 0.5774
vn 0.9748 -0.2229 0.0000
vn 0.1305 -0.9250 0.3568
vn 0.1305 -0.9250 -0.3568
vn 0.6523 -0.4911 -0.5774
vn 0.8752 0.4838 0.0000
vn 0.3533 0.0498 0.9342
vn -0.4911 -0.6523 0.5774
vn -0.4911 -0.6523 -0.5774
vn 0.3533 0.0498 -0.9342
vn 0.4911 0.6523 0.5774
vn -0.3533 -0.0498 0.9342
vn -0.8752 -0.4838 0.0000
vn -0.3533 -0.0498 -0.9342
vn 0.4911 0.6523 -0.5774
vn -0.1305 0.9250 0.3568
vn -0.6523 0.4911 0.5774
vn -0.9748 0.2229 0.0000
vn -0.6523 0.4911 -0.5774
vn -0.1305 0.9250 -0.3568
usemtl None
s off
f 1/1/1 2/2/1 3/3/1
f 2/2/2 1/1/2 6/4/2
f 1/1/3 3/3/3 4/5/3
f 1/6/4 4/7/4 5/8/4
f 1/6/5 5/8/5 6/9/5
f 2/2/6 6/4/6 11/10/6
f 3/3/7 2/2/7 7/11/7
f 4/5/8 3/3/8 8/12/8
f 5/8/9 4/7/9 9/13/9
f 6/9/10 5/8/10 10/14/10
f 2/2/11 11/10/11 7/11/11
f 3/3/12 7/11/12 8/12/12
f 4/7/13 8/15/13 9/13/13
f 5/8/14 9/13/14 10/14/14
f 6/9/15 10/14/15 11/16/15
f 7/11/16 11/10/16 12/17/16
f 8/12/17 7/11/17 12/17/17
f 9/13/18 8/15/18 12/18/18
f 10/14/19 9/13/19 12/18/19
f 11/16/20 10/14/20 12/18/20
