# Blender v3.1.2 OBJ File: 'Monitors.blend'
# www.blender.org
mtllib Penta-0.mtl
o penta-0_Icosphere.009
v 1.018651 -1.284554 -0.003743
v 1.353509 0.180123 0.863695
v 0.084841 -0.874817 1.399813
v -0.699258 -1.526822 -0.003743
v 0.084841 -0.874817 -1.407299
v 1.353509 0.180123 -0.871181
v -0.157451 0.843083 1.399813
v -1.426119 -0.211857 0.863695
v -1.426119 -0.211857 -0.871181
v -0.157451 0.843083 -1.407299
v 0.626649 1.495088 -0.003743
v -1.091261 1.252821 -0.003743
vt 0.184207 0.276974
vt 0.275116 0.434435
vt 0.093298 0.434435
vt 0.366025 0.276974
vt 0.456934 0.434435
vt 0.911479 0.276974
vt 1.002388 0.434435
vt 0.820570 0.434435
vt 0.729661 0.276974
vt 0.638752 0.434435
vt 0.547843 0.276974
vt 0.366025 0.591895
vt 0.184207 0.591895
vt 0.911479 0.591895
vt 0.729661 0.591895
vt 0.547843 0.591895
vt 0.002388 0.591895
vt 0.275116 0.749356
vt 0.093298 0.749356
vt 0.820570 0.749356
vt 0.638752 0.749356
vt 0.456934 0.749356
vn 0.6523 -0.4911 0.5774
vn 0.9748 -0.2229 0.0000
vn 0.1305 -0.9250 0.3568
vn 0.1305 -0.9250 -0.3568
vn 0.6523 -0.4911 -0.5774
vn 0.8752 0.4838 0.0000
vn 0.3533 0.0498 0.9342
vn -0.4911 -0.6523 0.5774
vn -0.4911 -0.6523 -0.5774
vn 0.3533 0.0498 -0.9342
vn 0.4911 0.6523 0.5774
vn -0.3533 -0.0498 0.9342
vn -0.8752 -0.4838 0.0000
vn -0.3533 -0.0498 -0.9342
vn 0.4911 0.6523 -0.5774
vn -0.1305 0.9250 0.3568
vn -0.6523 0.4911 0.5774
vn -0.9748 0.2229 0.0000
vn -0.6523 0.4911 -0.5774
vn -0.1305 0.9250 -0.3568
usemtl None
s off
f 1/1/1 2/2/1 3/3/1
f 2/2/2 1/4/2 6/5/2
f 1/6/3 3/7/3 4/8/3
f 1/9/4 4/8/4 5/10/4
f 1/11/5 5/10/5 6/5/5
f 2/2/6 6/5/6 11/12/6
f 3/3/7 2/2/7 7/13/7
f 4/8/8 3/7/8 8/14/8
f 5/10/9 4/8/9 9/15/9
f 6/5/10 5/10/10 10/16/10
f 2/2/11 11/12/11 7/13/11
f 3/3/12 7/13/12 8/17/12
f 4/8/13 8/14/13 9/15/13
f 5/10/14 9/15/14 10/16/14
f 6/5/15 10/16/15 11/12/15
f 7/13/16 11/12/16 12/18/16
f 8/17/17 7/13/17 12/19/17
f 9/15/18 8/14/18 12/20/18
f 10/16/19 9/15/19 12/21/19
f 11/12/20 10/16/20 12/22/20
