# Blender v3.1.2 OBJ File: 'Monitors.blend'
# www.blender.org
mtllib Rect-4.mtl
o Rect-4_Cube.010
v -2.500000 -1.500000 1.500000
v -2.500000 1.500000 1.500000
v -2.500000 -1.500000 -1.500000
v -2.500000 1.500000 -1.500000
v 2.500000 -1.500000 1.500000
v 2.500000 1.500000 1.500000
v 2.500000 -1.500000 -1.500000
v 2.500000 1.500000 -1.500000
v 0.000000 -1.500000 -1.500000
v 0.000000 1.500000 -1.500000
v 0.000000 -1.500000 1.500000
v 0.000000 1.500000 1.500000
v -1.250000 -1.500000 -1.500000
v -1.250000 1.500000 1.500000
v -1.250000 1.500000 -1.500000
v -1.250000 -1.500000 1.500000
v 1.250000 1.500000 -1.500000
v 1.250000 -1.500000 1.500000
v 1.250000 -1.500000 -1.500000
v 1.250000 1.500000 1.500000
vt 0.000000 1.000000
vt 1.000000 0.000000
vt 0.000000 0.000000
vt 0.750000 1.000000
vt 1.000000 0.000000
vt 0.750000 0.000000
vt 1.000000 1.000000
vt 0.000000 0.000000
vt 0.250000 1.000000
vt 0.250000 0.000000
vt 1.000000 1.000000
vt 0.750000 0.000000
vt 0.750000 1.000000
vt 0.000000 1.000000
vt 0.250000 0.000000
vt 0.250000 1.000000
vt 0.500000 1.000000
vt 0.750000 0.000000
vt 0.500000 1.000000
vt 0.250000 1.000000
vt 0.750000 1.000000
vt 0.500000 0.000000
vt 0.500000 0.000000
vt 0.250000 0.000000
vt 0.000000 0.000000
vt 0.000000 1.000000
vt 0.500000 0.000000
vt 0.500000 1.000000
vt 1.000000 1.000000
vt 1.000000 0.000000
vt 1.000000 0.000000
vt 1.000000 1.000000
vt 0.000000 1.000000
vt 0.000000 0.000000
vn -1.0000 0.0000 0.0000
vn 0.0000 0.0000 -1.0000
vn 1.0000 0.0000 0.0000
vn 0.0000 0.0000 1.0000
vn 0.0000 -1.0000 0.0000
vn 0.0000 1.0000 0.0000
usemtl None
s off
f 2/1/1 3/2/1 1/3/1
f 17/4/2 7/5/2 19/6/2
f 8/7/3 5/8/3 7/5/3
f 14/9/4 1/3/4 16/10/4
f 7/11/5 18/12/5 19/13/5
f 4/14/6 14/15/6 15/16/6
f 10/17/6 20/18/6 17/4/6
f 9/19/5 16/10/5 13/20/5
f 20/21/4 11/22/4 18/12/4
f 15/16/2 9/23/2 13/24/2
f 4/14/2 13/24/2 3/25/2
f 13/20/5 1/3/5 3/26/5
f 15/16/6 12/27/6 10/17/6
f 12/28/4 16/10/4 11/22/4
f 6/29/4 18/12/4 5/30/4
f 17/4/6 6/31/6 8/7/6
f 19/13/5 11/22/5 9/19/5
f 10/17/2 19/6/2 9/23/2
f 2/1/1 4/32/1 3/2/1
f 17/4/2 8/7/2 7/5/2
f 8/7/3 6/33/3 5/8/3
f 14/9/4 2/1/4 1/3/4
f 7/11/5 5/30/5 18/12/5
f 4/14/6 2/34/6 14/15/6
f 10/17/6 12/27/6 20/18/6
f 9/19/5 11/22/5 16/10/5
f 20/21/4 12/28/4 11/22/4
f 15/16/2 10/17/2 9/23/2
f 4/14/2 15/16/2 13/24/2
f 13/20/5 16/10/5 1/3/5
f 15/16/6 14/15/6 12/27/6
f 12/28/4 14/9/4 16/10/4
f 6/29/4 20/21/4 18/12/4
f 17/4/6 20/18/6 6/31/6
f 19/13/5 18/12/5 11/22/5
f 10/17/2 17/4/2 19/6/2
