# Blender v3.1.2 OBJ File: ''
# www.blender.org
mtllib rectPlane3.mtl
o Plane
v 0.000000 2.045356 1.794284
v -0.000000 0.045356 1.794284
v 0.000000 2.045356 -1.794284
v -0.000000 0.045356 -1.794284
v 0.000000 2.045356 0.000000
v -0.000000 0.045356 0.000000
v 0.000000 1.045356 1.794284
v 0.000000 1.045356 -1.794284
v 0.000000 1.045356 0.000000
v 0.000000 2.045356 0.897142
v -0.000000 0.045356 0.897142
v 0.000000 1.045356 0.897142
v -0.000000 0.045356 -0.897142
v 0.000000 2.045356 -0.897142
v 0.000000 1.045356 -0.897142
vt 0.209856 0.996758
vt 1.000000 0.750000
vt 1.000000 1.000000
vt 0.500000 1.000000
vt 0.998939 0.003242
vt 1.000000 0.250000
vt 1.000000 0.500000
vt 0.670832 0.500000
vt 0.000000 0.250000
vt 0.355223 0.673544
vt 0.000000 0.248349
vt 0.000000 1.000000
vt 0.000000 0.000000
vt 0.500000 0.398609
vt 1.000000 0.000000
vn 1.0000 -0.0000 0.0000
usemtl None
s off
f 15/1/1 13/2/1 4/3/1 8/4/1
f 12/5/1 11/6/1 6/7/1 9/8/1
f 10/9/1 12/5/1 9/8/1 5/10/1
f 14/11/1 15/1/1 8/4/1 3/12/1
f 1/13/1 7/14/1 12/5/1 10/9/1
f 7/14/1 2/15/1 11/6/1 12/5/1
f 5/10/1 9/8/1 15/1/1 14/11/1
f 9/8/1 6/7/1 13/2/1 15/1/1
