# Blender v3.1.2 OBJ File: 'Monitors.blend'
# www.blender.org
mtllib Plane-sq-1.mtl
o SqPlane-1_Plane.009
v -1.500000 1.500000 -0.000000
v -1.500000 -1.500000 -0.000000
v 1.500000 1.500000 0.000000
v 1.500000 -1.500000 0.000000
v 0.000000 1.500000 0.000000
v -0.000000 -1.500000 0.000000
v -1.500000 0.000000 -0.000000
v 1.500000 -0.000000 0.000000
v 0.000000 0.000000 0.000000
vt 1.000000 0.000000
vt 1.000000 1.000000
vt 0.000000 1.000000
vt 0.000000 0.000000
vt 1.000000 0.000000
vt 1.000000 1.000000
vt 0.000000 1.000000
vt 0.000000 0.000000
vt 1.000000 0.000000
vt 1.000000 1.000000
vt 0.000000 1.000000
vt 0.000000 0.000000
vt 1.000000 0.000000
vt 1.000000 1.000000
vt 0.000000 1.000000
vt 0.000000 0.000000
vn -0.0000 0.0000 1.0000
usemtl None
s off
f 9/1/1 6/2/1 4/3/1 8/4/1
f 7/5/1 2/6/1 6/7/1 9/8/1
f 1/9/1 7/10/1 9/11/1 5/12/1
f 5/13/1 9/14/1 8/15/1 3/16/1
