# Blender 3.6.2
# www.blender.org
mtllib verPlane-10.mtl
o verPlane-10
v -1.500000 2.230594 -0.000000
v -1.500000 -2.230594 -0.000000
v 1.500000 2.230594 0.000000
v 1.500000 -2.230594 0.000000
v -1.500000 0.000000 -0.000000
v 0.000000 0.000000 0.000000
v -1.500000 1.115297 -0.000000
v 0.000000 2.230594 0.000000
v -1.500000 -1.115297 -0.000000
v -0.750000 0.557649 -0.000000
v -0.000000 -2.230594 0.000000
v 0.750000 1.115297 0.000000
v -1.500000 1.672946 -0.000000
v -0.375000 1.394121 -0.000000
v 1.500000 -0.000000 0.000000
v -0.750000 -1.115297 -0.000000
v -1.500000 0.557649 -0.000000
v -1.125000 -0.278824 -0.000000
v 0.375000 -0.557649 0.000000
vn -0.0000 -0.0000 1.0000
vt 0.601837 0.466950
vt 0.682728 0.765452
vt 0.359166 0.765452
vt 0.359166 0.566451
vt 0.628132 -0.299051
vt 0.870803 -0.099606
vt 0.870803 0.695513
vt 0.709022 0.297510
vt 0.552367 -0.234963
vt 0.633257 0.063539
vt 0.471477 0.262540
vt 0.471477 0.063539
vt 0.305239 -0.323646
vt 0.467020 0.074356
vt 0.305239 0.273358
vt 0.224349 -0.025144
vt 0.409528 0.402419
vt 0.571308 0.800422
vt 0.247747 0.800422
vt 0.166856 0.501920
vt 0.773646 0.058461
vt 0.935426 0.456464
vt 0.692755 0.555964
vt 0.611865 0.257462
vt 0.292760 0.480658
vt 0.535431 0.680103
vt 0.616322 1.276664
vt 0.454541 0.878661
vt 0.724175 0.804262
vt 0.805066 1.102764
vt 0.562395 1.202265
vt 0.562395 1.003263
vt 0.471477 0.197102
vt 0.795038 0.197988
vt 0.875928 0.794549
vt 0.633257 0.595105
vt 0.637268 0.384667
vt 0.799049 0.782670
vt 0.718159 1.081172
vt 0.637268 0.782670
vt 0.332426 0.305810
vt 0.413316 0.604311
vt 0.332426 0.902813
vt 0.332426 0.703812
vt 0.274487 0.554044
vt 0.598049 0.554930
vt 0.598049 1.350049
vt 0.355378 1.150605
s 0
f 14/1/1 8/2/1 1/3/1 13/4/1
f 19/5/1 15/6/1 3/7/1 12/8/1
f 18/9/1 10/10/1 7/11/1 17/12/1
f 16/13/1 6/14/1 10/15/1 18/16/1
f 12/17/1 3/18/1 8/19/1 14/20/1
f 6/21/1 12/22/1 14/23/1 10/24/1
f 16/25/1 19/26/1 12/27/1 6/28/1
f 10/29/1 14/30/1 13/31/1 7/32/1
f 2/33/1 11/34/1 19/35/1 16/36/1
f 2/37/1 16/38/1 18/39/1 9/40/1
f 9/41/1 18/42/1 17/43/1 5/44/1
f 11/45/1 4/46/1 15/47/1 19/48/1
